<?xml version="1.0" encoding="utf-8"?>
<!-- Svg Vector Icons : http://www.onlinewebfonts.com/icon -->
<!DOCTYPE svg PUBLIC "-//W3C//DTD SVG 1.1//EN" "http://www.w3.org/Graphics/SVG/1.1/DTD/svg11.dtd">
<svg version="1.1" xmlns="http://www.w3.org/2000/svg" xmlns:xlink="http://www.w3.org/1999/xlink" x="0px" y="0px" viewBox="0 0 1000 1000" enable-background="new 0 0 1000 1000" xml:space="preserve">
<metadata> Svg Vector Icons : http://www.onlinewebfonts.com/icon </metadata>
<g><g transform="translate(0.000000,511.000000) scale(0.100000,-0.100000)"><path d="M3418.9,4064.3C1825.6,3936.4,501.6,2766.8,164,1184.6c-72.8-342-86.1-953.3-26.5-1302c141.2-818.7,481.1-1463,1070.3-2032.4c1079.1-1043.8,2643.6-1308.6,4029.4-684.1c203,92.7,803.2,251.6,1275.5,337.6c293.5,53,381.8,57.4,867.2,59.6c494.3,2.2,558.3-2.2,739.2-48.6c587-150,926.8-476.7,1068.1-1028.3c64-258.2,178.7-357.5,388.4-339.8c205.2,17.7,326.6,150.1,324.4,359.7c-2.2,145.6-94.9,439.1-216.3,675.3C9326.2-2123.2,8628.9-1752.5,7589.6-1704c-256,13.2-723.8-13.3-935.6-50.8l-72.8-13.2l136.8,205.2c1094.5,1628.5,690.7,3826.4-913.6,4973.9C5129.1,3894.4,4264.1,4130.5,3418.9,4064.3z M3862.4,3311.9c271.4-50.8,525.2-247.1,644.4-500.9c53-110.3,59.6-152.3,59.6-357.5s-6.6-247.2-59.6-357.5c-165.5-353.1-569.3-571.5-935.6-505.3c-375.1,70.6-648.8,346.5-719.4,726c-81.7,439.1,242.7,907,688.5,995.2C3679.3,3338.3,3714.6,3338.3,3862.4,3311.9z M1953.6,1292.7c445.8-130.2,719.4-602.4,606.8-1041.6c-125.8-496.5-622.3-774.5-1110-624.5c-267,81.7-496.5,311.1-573.7,573.7c-53,183.2-30.9,463.4,46.3,626.7C1108.5,1211.1,1547.6,1411.9,1953.6,1292.7z M6089,1242c178.7-88.3,364.1-284.7,432.5-459c39.7-99.3,50.8-172.1,50.8-326.6c0-154.5-11-227.3-50.8-326.6c-70.6-178.7-253.8-370.7-439.1-461.2c-136.8-68.4-163.3-72.8-368.5-72.8c-203,0-233.9,6.6-370.7,70.6c-181,86.1-333.2,233.9-423.7,417.1c-61.8,119.2-66.2,147.8-66.2,361.9s4.4,242.7,68.4,375.1c110.3,236.1,335.4,423.7,576,485.5c46.3,11,165.5,17.6,267,13.2C5916.9,1312.6,5972,1299.3,6089,1242z M3884.5,807.2c368.5-174.3,245-737-163.3-737c-264.8,0-441.3,214.1-392.8,474.4c17.7,92.7,128,227.3,222.9,267C3641.8,851.4,3794,849.2,3884.5,807.2z M3992.6-717.6c222.9-77.2,412.7-249.3,514.2-465.6c53-110.3,59.6-152.3,59.6-357.5c0-209.6-6.6-244.9-64-370.7c-83.9-180.9-291.3-379.6-465.6-443.5c-443.6-165.5-918,24.3-1116.6,448C2637.7-1304.6,3132-609.5,3794-675.7C3855.8-682.3,3944.1-699.9,3992.6-717.6z"/></g></g>
</svg>